<?xml version="1.0" encoding="UTF-8" standalone="no"?>
<!-- Created with Inkscape (http://www.inkscape.org/) -->

<svg
   width="140mm"
   height="140.00002mm"
   viewBox="0 0 140 140.00002"
   version="1.1"
   id="svg1"
   xml:space="preserve"
   inkscape:version="1.3 (0e150ed6c4, 2023-07-21)"
   sodipodi:docname="logo_v2.svg"
   xmlns:inkscape="http://www.inkscape.org/namespaces/inkscape"
   xmlns:sodipodi="http://sodipodi.sourceforge.net/DTD/sodipodi-0.dtd"
   xmlns="http://www.w3.org/2000/svg"
   xmlns:svg="http://www.w3.org/2000/svg"><sodipodi:namedview
     id="namedview1"
     pagecolor="#505050"
     bordercolor="#ffffff"
     borderopacity="1"
     inkscape:showpageshadow="0"
     inkscape:pageopacity="0"
     inkscape:pagecheckerboard="1"
     inkscape:deskcolor="#505050"
     inkscape:document-units="mm"
     inkscape:zoom="0.5052024"
     inkscape:cx="208.82719"
     inkscape:cy="285.03428"
     inkscape:window-width="1920"
     inkscape:window-height="991"
     inkscape:window-x="-9"
     inkscape:window-y="-9"
     inkscape:window-maximized="1"
     inkscape:current-layer="layer1" /><defs
     id="defs1" /><g
     inkscape:label="Camada 1"
     inkscape:groupmode="layer"
     id="layer1"
     transform="translate(-32.974271,-31.35819)"><g
       id="g1"
       transform="matrix(0.26921199,0,0,0.21403487,16.49409,38.779138)"><path
         fill="#d7d7d7"
         d="M 155.167,99.833 V 223.27464 L 458.76824,524.31112 V 379.47491 L 334.12397,247.03857 489.47603,99.833 H 345.54582 l -75.38894,73.27236 V 99.833 Z"
         id="path1"
         style="stroke-width:1.05624"
         sodipodi:nodetypes="cccccccccc" /><path
         fill="#00e0c6"
         d="m 155.167,243.98296 v 37.37709 l 114.15945,112.13126 v -37.37708 z m 0,56.06563 3.5e-4,46.72136 114.1591,112.13127 v -46.72136 z m 3.5e-4,65.40991 v 46.72136 l 114.1591,112.13126 v -46.72136 z"
         id="path2"
         style="stroke-width:1.05624"
         sodipodi:nodetypes="ccccccccccccccc" /><g
         id="g3"
         transform="matrix(0.94221048,0,0,1.1696067,41.899233,-47.509984)"
         inkscape:label="g3"><path
           fill="#d7d7d7"
           d="m 296.46545,10.976602 c -152.40902,0 -275.963519,125.192498 -275.963519,279.621928 0,154.4336 123.554499,279.62506 275.963519,279.62506 152.41517,0 275.96865,-125.19355 275.96865,-279.62506 0,-154.43047 -123.55348,-279.621928 -275.96865,-279.621928 z m 0.99502,532.539708 c -138.07399,0 -250.007976,-113.41702 -250.007976,-253.32236 0,-139.90324 111.933986,-253.320269 250.007976,-253.320269 138.07706,0 250.00798,113.417029 250.00798,253.320269 0,139.90325 -111.93092,253.32236 -250.00798,253.32236 z"
           id="path3"
           style="stroke-width:1.03369" /></g></g></g></svg>
